<svg t="1653980895214" class="icon" viewBox="0 0 1024 1024" version="1.1" xmlns="http://www.w3.org/2000/svg" p-id="3982" width="200" height="200">
  <path d="M178.899097 120.446076H845.100903v857.699374H178.899097z" fill="#E8A5A5" p-id="3983"></path>
  <path d="M845.100903 961.962442H178.899097a16.183007 16.183007 0 0 1 16.183007 16.183008v-857.699374a16.183007 16.183007 0 0 1-16.183007 16.183007H845.100903a16.183007 16.183007 0 0 1-16.183007-16.183007v857.699374a16.183007 16.183007 0 0 1 16.183007-16.183008z m0-857.699373H178.899097a16.183007 16.183007 0 0 0-16.183007 16.183007v857.699374a16.183007 16.183007 0 0 0 16.183007 16.183007H845.100903a16.183007 16.183007 0 0 0 16.183007-16.183007v-857.699374a16.183007 16.183007 0 0 0-16.183007-16.183007z" fill="#6E6E96" p-id="3984"></path>
  <path d="M242.28389 16.183007h151.040051v68.276107H242.28389z" fill="#F0F0FF" p-id="3985"></path>
  <path d="M393.323941 68.276107H242.28389a16.183007 16.183007 0 0 1 16.183007 16.183007V16.183007a16.183007 16.183007 0 0 1-16.183007 16.183007h151.040051a16.183007 16.183007 0 0 1-16.183007-16.183007v68.276107a16.183007 16.183007 0 0 1 16.183007-16.183007z m0-68.276107H242.28389a16.183007 16.183007 0 0 0-16.183007 16.183007v68.276107a16.183007 16.183007 0 0 0 16.183007 16.183007h151.040051a16.183007 16.183007 0 0 0 16.183007-16.183007V16.183007a16.183007 16.183007 0 0 0-16.183007-16.183007z" fill="#6E6E96" p-id="3986"></path>
  <path d="M211.265111 32.366014h215.772079a16.183007 16.183007 0 0 0 0-32.366014H211.265111a16.183007 16.183007 0 0 0 0 32.366014z" fill="#6E6E96" p-id="3987"></path>
  <path d="M408.159712 135.281847h223.863583v803.757366H408.159712z" fill="#FFDCB5" p-id="3988"></path>
  <path d="M404.113961 769.117639h223.863582v173.967326H404.113961zM242.28389 210.79985h99.796559v94.399526H242.28389z" fill="#9FCDFF" p-id="3989"></path>
  <path d="M342.080449 289.020414H242.28389a16.183007 16.183007 0 0 1 16.183007 16.183008V210.79985a16.183007 16.183007 0 0 1-16.183007 16.183007h99.796559a16.183007 16.183007 0 0 1-16.183007-16.183007v94.399526a16.183007 16.183007 0 0 1 16.183007-16.178962z m0-94.403571H242.28389a16.183007 16.183007 0 0 0-16.183007 16.183007v94.399526a16.183007 16.183007 0 0 0 16.183007 16.183007h99.796559a16.183007 16.183007 0 0 0 16.183007-16.183007V210.79985c0-8.93302-7.249987-16.183007-16.183007-16.183007z" fill="#6E6E96" p-id="3990"></path>
  <path d="M242.28389 376.679718h99.792513v94.399526H242.28389zM242.28389 539.857024h99.792513v94.399526H242.28389z" fill="#9FCDFF" p-id="3991"></path>
  <path d="M342.080449 618.073543H242.28389a16.183007 16.183007 0 0 1 16.183007 16.183007v-94.399526a16.183007 16.183007 0 0 1-16.183007 16.183007h99.792513a16.183007 16.183007 0 0 1-16.183007-16.183007v94.399526a16.191099 16.191099 0 0 1 16.187053-16.183007z m0-94.399526H242.28389a16.183007 16.183007 0 0 0-16.183007 16.183007v94.399526a16.183007 16.183007 0 0 0 16.183007 16.183007h99.792513a16.183007 16.183007 0 0 0 16.183007-16.183007v-94.399526a16.183007 16.183007 0 0 0-16.178961-16.183007z" fill="#6E6E96" p-id="3992"></path>
  <path d="M242.287936 708.431362h99.792513v94.399526H242.287936z" fill="#9FCDFF" p-id="3993"></path>
  <path d="M342.080449 786.647881H242.287936a16.183007 16.183007 0 0 1 16.183007 16.183007v-94.399526a16.183007 16.183007 0 0 1-16.183007 16.183008h99.792513a16.183007 16.183007 0 0 1-16.183007-16.183008v94.399526a16.183007 16.183007 0 0 1 16.183007-16.183007z m0-94.399526H242.287936a16.183007 16.183007 0 0 0-16.183007 16.183007v94.399526a16.183007 16.183007 0 0 0 16.183007 16.183007h99.792513a16.183007 16.183007 0 0 0 16.183007-16.183007v-94.399526a16.183007 16.183007 0 0 0-16.183007-16.183007z" fill="#6E6E96" p-id="3994"></path>
  <path d="M687.316584 217.544118h99.792513v94.399526H687.316584zM687.316584 376.679718h99.792513v94.399526H687.316584zM687.316584 539.857024h99.792513v94.399526H687.316584zM687.316584 708.431362h99.792513v94.399526H687.316584z" fill="#9FCDFF" p-id="3995"></path>
  <path d="M505.257755 769.117639v173.967326a16.183007 16.183007 0 0 0 32.366014 0v-173.967326a16.183007 16.183007 0 0 0-32.366014 0z" fill="#6E6E96" p-id="3996"></path>
  <path d="M137.094344 943.084965h749.811312v64.732028H137.094344z" fill="#F0F0FF" p-id="3997"></path>
  <path d="M886.905656 991.633986H137.094344a16.183007 16.183007 0 0 1 16.183007 16.183007v-64.732028a16.183007 16.183007 0 0 1-16.183007 16.183007h749.811312a16.183007 16.183007 0 0 1-16.183007-16.183007v64.732028a16.183007 16.183007 0 0 1 16.183007-16.183007z m0-64.732028H137.094344a16.183007 16.183007 0 0 0-16.183007 16.183007v64.732028a16.183007 16.183007 0 0 0 16.183007 16.183007h749.811312a16.183007 16.183007 0 0 0 16.183007-16.183007v-64.732028a16.183007 16.183007 0 0 0-16.183007-16.183007z" fill="#6E6E96" p-id="3998"></path>
  <path d="M195.082104 155.510606H828.917896v29.667498H195.082104zM424.342719 785.300646h191.497569v31.014733H424.342719z" fill="#6E6E96" opacity=".2" p-id="3999"></path>
  <path d="M258.466897 275.531878l48.549021-48.549021H258.466897z" fill="#FFFFFF" opacity=".49" p-id="4000"></path>
  <path d="M270.604152 289.020414l55.29329-55.293289v26.973027l-28.320263 28.320262z" fill="#FFFFFF" opacity=".23" p-id="4001"></path>
  <path d="M257.119662 442.758981l48.549021-48.549021h-48.549021z" fill="#FFFFFF" opacity=".49" p-id="4002"></path>
  <path d="M269.256917 456.243472l55.289244-55.289244v26.968982l-28.320263 28.320262z" fill="#FFFFFF" opacity=".23" p-id="4003"></path>
  <path d="M342.080449 454.896237H242.28389a16.183007 16.183007 0 0 1 16.183007 16.183007V376.679718a16.183007 16.183007 0 0 1-16.183007 16.183007h99.792513a16.183007 16.183007 0 0 1-16.183007-16.183007v94.399526a16.191099 16.191099 0 0 1 16.187053-16.183007z m0-94.399526H242.28389a16.183007 16.183007 0 0 0-16.183007 16.183007v94.399526a16.183007 16.183007 0 0 0 16.183007 16.183007h99.792513a16.183007 16.183007 0 0 0 16.183007-16.183007V376.679718a16.183007 16.183007 0 0 0-16.178961-16.183007z" fill="#6E6E96" p-id="4004"></path>
  <path d="M258.470943 604.593098l48.549021-48.549021h-48.549021z" fill="#FFFFFF" opacity=".49" p-id="4005"></path>
  <path d="M270.608198 618.077588l55.289244-55.293289v26.973027l-28.320263 28.320262z" fill="#FFFFFF" opacity=".23" p-id="4006"></path>
  <path d="M258.466897 773.163391l48.549021-48.549021H258.466897z" fill="#FFFFFF" opacity=".49" p-id="4007"></path>
  <path d="M270.604152 786.647881l55.289244-55.293289v26.973027l-28.320262 28.320262z" fill="#FFFFFF" opacity=".23" p-id="4008"></path>
  <path d="M704.846826 283.623382l48.549022-48.549022h-48.549022z" fill="#FFFFFF" opacity=".49" p-id="4009"></path>
  <path d="M716.984082 297.111918L772.277371 241.818629v26.973027l-28.320262 28.320262z" fill="#FFFFFF" opacity=".23" p-id="4010"></path>
  <path d="M703.499591 442.758981l48.549021-48.549021h-48.549021z" fill="#FFFFFF" opacity=".49" p-id="4011"></path>
  <path d="M715.636846 456.243472l55.29329-55.289244v26.968982l-28.320263 28.320262z" fill="#FFFFFF" opacity=".23" p-id="4012"></path>
  <path d="M704.846826 604.593098l48.549022-48.549021h-48.549022z" fill="#FFFFFF" opacity=".49" p-id="4013"></path>
  <path d="M716.984082 618.077588L772.277371 562.784299v26.973027l-28.320262 28.320262z" fill="#FFFFFF" opacity=".23" p-id="4014"></path>
  <path d="M704.846826 773.163391l48.549022-48.549021h-48.549022z" fill="#FFFFFF" opacity=".49" p-id="4015"></path>
  <path d="M716.984082 786.647881L772.277371 731.354592v26.973027l-28.320262 28.320262z" fill="#FFFFFF" opacity=".23" p-id="4016"></path>
  <path d="M787.113143 295.764683H687.316584a16.183007 16.183007 0 0 1 16.183007 16.183007V217.544118a16.183007 16.183007 0 0 1-16.183007 16.183007h99.792513a16.183007 16.183007 0 0 1-16.183007-16.183007v94.399526a16.187053 16.187053 0 0 1 16.187053-16.178961z m0-94.403572H687.316584a16.183007 16.183007 0 0 0-16.183007 16.183007v94.399526a16.183007 16.183007 0 0 0 16.183007 16.183007h99.792513a16.183007 16.183007 0 0 0 16.183007-16.183007V217.544118a16.183007 16.183007 0 0 0-16.178961-16.183007zM787.113143 454.896237H687.316584a16.183007 16.183007 0 0 1 16.183007 16.183007V376.679718a16.183007 16.183007 0 0 1-16.183007 16.183007h99.792513a16.183007 16.183007 0 0 1-16.183007-16.183007v94.399526a16.191099 16.191099 0 0 1 16.187053-16.183007z m0-94.399526H687.316584a16.183007 16.183007 0 0 0-16.183007 16.183007v94.399526a16.183007 16.183007 0 0 0 16.183007 16.183007h99.792513a16.183007 16.183007 0 0 0 16.183007-16.183007V376.679718a16.183007 16.183007 0 0 0-16.178961-16.183007zM787.113143 618.073543H687.316584a16.183007 16.183007 0 0 1 16.183007 16.183007v-94.399526a16.183007 16.183007 0 0 1-16.183007 16.183007h99.792513a16.183007 16.183007 0 0 1-16.183007-16.183007v94.399526a16.191099 16.191099 0 0 1 16.187053-16.183007z m0-94.399526H687.316584a16.183007 16.183007 0 0 0-16.183007 16.183007v94.399526a16.183007 16.183007 0 0 0 16.183007 16.183007h99.792513a16.183007 16.183007 0 0 0 16.183007-16.183007v-94.399526a16.183007 16.183007 0 0 0-16.178961-16.183007zM787.113143 786.647881H687.316584a16.183007 16.183007 0 0 1 16.183007 16.183007v-94.399526a16.183007 16.183007 0 0 1-16.183007 16.183008h99.792513a16.183007 16.183007 0 0 1-16.183007-16.183008v94.399526a16.191099 16.191099 0 0 1 16.187053-16.183007z m0-94.399526H687.316584a16.183007 16.183007 0 0 0-16.183007 16.183007v94.399526a16.183007 16.183007 0 0 0 16.183007 16.183007h99.792513a16.183007 16.183007 0 0 0 16.183007-16.183007v-94.399526a16.183007 16.183007 0 0 0-16.178961-16.183007z" fill="#6E6E96" p-id="4017"></path>
  <path d="M424.342719 816.315379v60.686276l60.686277-60.686276z" fill="#FFFFFF" opacity=".49" p-id="4018"></path>
  <path d="M505.257755 816.315379l-80.915036 80.919081v29.667498l80.915036-80.919081z" fill="#FFFFFF" opacity=".23" p-id="4019"></path>
  <path d="M537.623769 817.662614v60.686277l60.686276-60.686277z" fill="#FFFFFF" opacity=".49" p-id="4020"></path>
  <path d="M618.538804 817.662614l-80.915035 80.919081v29.667498l80.915035-80.919081z" fill="#FFFFFF" opacity=".23" p-id="4021"></path>
  <path d="M632.023295 922.856206H408.159712a16.183007 16.183007 0 0 1 16.183007 16.183007V135.281847a16.183007 16.183007 0 0 1-16.183007 16.183008h223.863583a16.183007 16.183007 0 0 1-16.183007-16.183008v803.757366a16.183007 16.183007 0 0 1 16.183007-16.183007z m0-803.757366H408.159712a16.183007 16.183007 0 0 0-16.183007 16.183007v803.757366a16.183007 16.183007 0 0 0 16.183007 16.183007h223.863583a16.183007 16.183007 0 0 0 16.183007-16.183007V135.281847a16.183007 16.183007 0 0 0-16.183007-16.183007z" fill="#6E6E96" p-id="4022"></path>
  <path d="M137.094344 85.385591h749.811312v53.942008H137.094344z" fill="#F0F0FF" p-id="4023"></path>
  <path d="M886.905656 123.144592H137.094344a16.183007 16.183007 0 0 1 16.183007 16.183007V85.385591a16.183007 16.183007 0 0 1-16.183007 16.183007h749.811312a16.183007 16.183007 0 0 1-16.183007-16.183007v53.942008a16.183007 16.183007 0 0 1 16.183007-16.183007z m0-53.942008H137.094344a16.183007 16.183007 0 0 0-16.183007 16.183007v53.942008a16.183007 16.183007 0 0 0 16.183007 16.183007h749.811312a16.183007 16.183007 0 0 0 16.183007-16.183007V85.385591a16.183007 16.183007 0 0 0-16.183007-16.183007z" fill="#6E6E96" p-id="4024"></path>
  <path d="M404.113961 748.88888h227.909334v32.366014H404.113961z" fill="#6E6E96" p-id="4025"></path>
  <path d="M364.332084 185.178104H391.976705v741.723854h-27.644621z" fill="#6E6E96" opacity=".15" p-id="4026"></path>
  <path d="M801.273274 185.178104h27.648667v741.723854h-27.648667z" fill="#6E6E96" opacity=".15" p-id="4027"></path>
  <path d="M424.342719 185.178104h35.064531v563.710776H424.342719z" fill="#6E6E96" opacity=".15" p-id="4028"></path>
</svg>