<svg t="1653980870032" class="icon" viewBox="0 0 1024 1024" version="1.1" xmlns="http://www.w3.org/2000/svg" p-id="3819" width="200" height="200">
  <path d="M219.564393 147.562321h579.431937v856.03529H219.564393z" fill="#FFFFFF" p-id="3820"></path>
  <path d="M798.99633 983.195221H219.564393a20.402389 20.402389 0 0 1 20.402389 20.40239V147.562321a20.402389 20.402389 0 0 1-20.402389 20.402389h579.431937a20.402389 20.402389 0 0 1-20.402389-20.402389v856.03529c0-11.27436 9.132109-20.402389 20.402389-20.40239z m0-856.035289H219.564393a20.402389 20.402389 0 0 0-20.402389 20.402389v856.03529a20.402389 20.402389 0 0 0 20.402389 20.402389h579.431937a20.402389 20.402389 0 0 0 20.402389-20.402389V147.562321a20.402389 20.402389 0 0 0-20.402389-20.402389z" fill="#6E6E96" p-id="3821"></path>
  <path d="M346.728405 76.77011h325.107993v70.792211H346.728405z" fill="#B4B4D9" p-id="3822"></path>
  <path d="M671.836398 127.159932H346.728405a20.402389 20.402389 0 0 1 20.402389 20.402389V76.77011a20.402389 20.402389 0 0 1-20.402389 20.40239h325.107993a20.402389 20.402389 0 0 1-20.402389-20.40239v70.792211a20.402389 20.402389 0 0 1 20.402389-20.402389z m0-70.792211H346.728405a20.402389 20.402389 0 0 0-20.402389 20.402389v70.792211a20.402389 20.402389 0 0 0 20.402389 20.402389h325.107993a20.402389 20.402389 0 0 0 20.40239-20.402389V76.77011a20.402389 20.402389 0 0 0-20.40239-20.402389z" fill="#6E6E96" p-id="3823"></path>
  <path d="M527.718001 76.77011V20.402389a20.402389 20.402389 0 1 0-40.804779 0v56.367721a20.402389 20.402389 0 0 0 40.804779 0z" fill="#6E6E96" p-id="3824"></path>
  <path d="M293.755642 224.328351h426.405856v779.26926H293.755642z" fill="#BDDFFF" p-id="3825"></path>
  <path d="M314.158031 629.466756l391.162769-391.162768-285.270288 6.426752L314.158031 353.777431z" fill="#FFFFFF" opacity=".49" p-id="3826"></path>
  <path d="M699.759108 353.777431l-385.601077 385.592916 105.892481 3.060359 279.708596-279.704516z" fill="#FFFFFF" opacity=".27" p-id="3827"></path>
  <path d="M420.050512 757.5856V224.328351a20.402389 20.402389 0 0 0-40.804779 0v533.257249a20.402389 20.402389 0 1 0 40.804779 0zM634.667325 757.5856V224.328351a20.402389 20.402389 0 1 0-40.804778 0v533.257249a20.402389 20.402389 0 0 0 20.402389 20.40239 20.402389 20.402389 0 0 0 20.402389-20.40239zM487.961905 224.328351v533.257249a20.402389 20.402389 0 1 0 40.804779 0V224.328351a20.402389 20.402389 0 1 0-40.804779 0z" fill="#6E6E96" p-id="3828"></path>
  <path d="M720.161498 312.972652H293.755642a20.402389 20.402389 0 0 0 0 40.804779h426.405856a20.402389 20.402389 0 1 0 0-40.804779zM293.755642 456.172942h426.405856a20.402389 20.402389 0 1 0 0-40.804778H293.755642a20.402389 20.402389 0 0 0 0 40.804778zM720.161498 525.74509H293.755642a20.402389 20.402389 0 1 0 0 40.804778h426.405856a20.40647 20.40647 0 0 0 0-40.804778zM293.755642 670.271535h426.405856a20.402389 20.402389 0 0 0 20.402389-20.402389c0-11.27436-9.132109-20.402389-20.402389-20.40239H293.755642a20.402389 20.402389 0 1 0 0 40.804779z" fill="#6E6E96" p-id="3829"></path>
  <path d="M293.755642 757.5856h426.405856v246.012011H293.755642z" fill="#BDDFFF" p-id="3830"></path>
  <path d="M720.161498 983.195221H293.755642a20.402389 20.402389 0 0 1 20.402389 20.40239v-246.012011a20.402389 20.402389 0 0 1-20.402389 20.40239h426.405856c-11.27436 0-20.402389-9.132109-20.40239-20.40239v246.012011c0-11.27436 9.128029-20.402389 20.40239-20.40239z m0-246.01201H293.755642a20.402389 20.402389 0 0 0-20.40239 20.402389v246.012011a20.402389 20.402389 0 0 0 20.40239 20.402389h426.405856a20.402389 20.402389 0 0 0 20.402389-20.402389v-246.012011c0-11.27028-9.144351-20.402389-20.402389-20.402389z" fill="#6E6E96" p-id="3831"></path>
  <path d="M314.158031 777.98799h385.601077v39.947878H314.158031z" fill="#6E6E96" opacity=".15" p-id="3832"></path>
  <path d="M413.276919 817.935868l-102.603616 102.607696v62.651657l102.603616-102.603615zM314.158031 873.022319l55.086451-55.086451h-55.086451" fill="#FFFFFF" opacity=".49" p-id="3833"></path>
  <path d="M558.137963 817.935868L455.526186 920.543564v62.651657l102.611777-102.603615zM459.019075 873.022319l55.086452-55.086451h-55.086452" fill="#FFFFFF" opacity=".49" p-id="3834"></path>
  <path d="M698.914449 817.935868l-102.611776 102.607696v62.651657l102.611776-102.603615zM599.795562 873.022319l55.086451-55.086451h-55.086451" fill="#FFFFFF" opacity=".49" p-id="3835"></path>
  <path d="M454.081697 1003.597611v-246.012011a20.402389 20.402389 0 1 0-40.804778 0v246.012011a20.402389 20.402389 0 1 0 40.804778 0zM558.313424 757.5856v246.012011c0 11.27028 9.128029 20.402389 20.402389 20.402389a20.402389 20.402389 0 0 0 20.402389-20.402389v-246.012011a20.402389 20.402389 0 0 0-20.402389-20.402389c-11.27436 0-20.402389 9.132109-20.402389 20.402389z" fill="#6E6E96" p-id="3836"></path>
  <path d="M720.161498 983.195221H293.755642a20.402389 20.402389 0 0 1 20.402389 20.40239V224.328351a20.402389 20.402389 0 0 1-20.402389 20.402389h426.405856a20.402389 20.402389 0 0 1-20.40239-20.402389v779.26926c0-11.27436 9.128029-20.402389 20.40239-20.40239z m0-779.269259H293.755642a20.402389 20.402389 0 0 0-20.40239 20.402389v779.26926a20.402389 20.402389 0 0 0 20.40239 20.402389h426.405856a20.402389 20.402389 0 0 0 20.402389-20.402389V224.328351c0-11.266199-9.144351-20.402389-20.402389-20.402389z" fill="#6E6E96" p-id="3837"></path>
  <path d="M414.749971 97.1725h122.414336v29.987432h-122.414336z" fill="#FFFFFF" opacity=".46" p-id="3838"></path>
  <path d="M154.958187 983.195221h714.083626v40.804779H154.958187z" fill="#6E6E96" p-id="3839"></path>
</svg>