<svg xmlns="http://www.w3.org/2000/svg" viewBox="0 0 313.62 290.11">
  <defs>
    <style>.cls-1{fill:#fff;}</style>
  </defs>
  <title>我想要的2021</title>
  <path class="cls-1" d="M98.41,122.14c2.44-7.3,5-14.73,9.74-21S120.31,90,128.52,89.78a30.63,30.63,0,0,1,13,3,31.72,31.72,0,0,1,12.65,9.92c2.33,3.1,3,11.28,7.42,12.51,4.69,1.3,16.46-6.91,20.74-9,14.35-6.85,30.44-13.9,46-9.93,11,2.8,20.85,12.37,26.89,20.91a23,23,0,0,1,4.62,15c-.36,4.95-3.14,9.52-2,14.46,2,8.42,11.72,13.47,15.18,21.54C280.61,186,268.56,200,251.53,207c-7.35,3-16.13,4.93-23.17,1.36a30.56,30.56,0,0,1-7.64-6.16c-2.73-2.73-10.31-13.29-13.93-14-5-1-12,6.52-15.54,9-7.12,5-15.44,8.94-24.3,10.3-23,3.54-46.27-10-54-30.29a10.59,10.59,0,0,0-2-3.78c-4.26-4.37-14.1,4.48-18.27,5.89a82,82,0,0,1-24.35,4.32c-8.62.21-18.43-1.61-22.92-8.47-3-4.53-2.87-10.2-2.42-15.5.87-10.29,2.84-20.91,9.22-29.36s18.17-14.07,28.74-11c5.13,1.5,10,4.92,15.3,3.89" />
</svg>