<svg t="1653978118211" class="icon" viewBox="0 0 1024 1024" version="1.1" xmlns="http://www.w3.org/2000/svg" p-id="1535" width="200" height="200">
  <path d="M414 327.5h313.1v98.2H414z" fill="#1A7FC0" p-id="1536"></path>
  <path d="M570.5 327.5h156.6v98.2H570.5z" fill="#2D416C" p-id="1537"></path>
  <path d="M178.7 402.4h600.9s169.2 35 225.2 228.5c14.9 51.5-16.3 115.8-70 115.8H651.3s-157.5 0.1-297.6-239.2L97 478.2l-87.5-210h46.7l122.5 134.2z" fill="#83C6EF" p-id="1538"></path>
  <path d="M511.2 546.3m-45.5 0a45.5 45.5 0 1 0 91 0 45.5 45.5 0 1 0-91 0Z" fill="#FFFFFF" p-id="1539"></path>
  <path d="M629.9 546.3m-45.5 0a45.5 45.5 0 1 0 91 0 45.5 45.5 0 1 0-91 0Z" fill="#FFFFFF" p-id="1540"></path>
  <path d="M143.2 444.8a34.2 19.1 0 1 0 68.4 0 34.2 19.1 0 1 0-68.4 0Z" fill="#DA3329" p-id="1541"></path>
  <path d="M511.2 546.3m-38.9 0a38.9 38.9 0 1 0 77.8 0 38.9 38.9 0 1 0-77.8 0Z" fill="#F9C85D" p-id="1542"></path>
  <path d="M629.9 546.3m-38.9 0a38.9 38.9 0 1 0 77.8 0 38.9 38.9 0 1 0-77.8 0Z" fill="#F9C85D" p-id="1543"></path>
  <path d="M868.4 442.2s38.2 0 120 143c26.6 46.6-108.7 31.4-162.4 31.4l-60.8-144.2 103.2-30.2z" fill="#2D416C" p-id="1544"></path>
  <path d="M599.6 178.2h53.6v149.4h-53.6z" fill="#429BCF" p-id="1545"></path>
  <path d="M540.4 794.5h468.1v32.6H540.4z" fill="#2D416C" p-id="1546"></path>
  <path d="M652.4 746.6H685v64.2h-32.6zM874.1 746.6h32.6v64.2h-32.6z" fill="#2D416C" p-id="1547"></path>
  <path d="M626.4 178.2h26.8v149.4h-26.8z" fill="#1A7FC0" p-id="1548"></path>
  <path d="M228.5 171h715.2v32.6H228.5z" fill="#2D416C" p-id="1549"></path>
  <path d="M177.4 425.7v38.1c18.9 0 34.2-8.5 34.2-19.1-0.1-10.4-15.4-19-34.2-19z" fill="#C11B16" p-id="1550"></path>
  <path d="M511.2 507.4v77.8c21.5 0 38.9-17.4 38.9-38.9s-17.4-38.9-38.9-38.9zM629.4 507.4v77.8c21.5 0 38.9-17.4 38.9-38.9s-17.4-38.9-38.9-38.9z" fill="#FFB103" p-id="1551"></path>
</svg>